<svg width="22" height="18" viewBox="0 0 22 18" fill="none" xmlns="http://www.w3.org/2000/svg">
<path d="M20.7447 8.6785V3.19386C20.7447 1.98222 19.7625 1 18.5508 1H3.19386C1.98222 1 1 1.98222 1 3.19386V9.77542C1 10.9871 1.98222 11.9693 3.19386 11.9693H10.8724" stroke="black" stroke-linecap="round" stroke-linejoin="round"/>
<path fill-rule="evenodd" clip-rule="evenodd" d="M20.6119 12.9756C21.1535 13.3087 21.1202 14.1197 20.5623 14.183L17.7469 14.5021L16.4841 17.0385C16.2339 17.5411 15.4605 17.2951 15.3326 16.6721L13.9556 9.96333C13.8476 9.4368 14.3208 9.10542 14.7785 9.38711L20.6119 12.9756Z" stroke="black"/>
<path d="M10.8723 6.49561L10.8833 6.48344" stroke="black" stroke-linecap="round" stroke-linejoin="round"/>
<path d="M15.2601 6.49561L15.271 6.48344" stroke="black" stroke-linecap="round" stroke-linejoin="round"/>
<path d="M6.48465 6.49561L6.49562 6.48344" stroke="black" stroke-linecap="round" stroke-linejoin="round"/>
</svg>
