<svg width="26" height="18" viewBox="0 0 26 18" fill="none" xmlns="http://www.w3.org/2000/svg">
<path d="M6.99998 16.6C8.32546 16.6 9.39998 15.5256 9.39998 14.2C9.39998 12.8745 8.32546 11.8 6.99998 11.8C5.67449 11.8 4.59998 12.8745 4.59998 14.2C4.59998 15.5256 5.67449 16.6 6.99998 16.6Z" stroke="black" stroke-width="1.5" stroke-miterlimit="1.5" stroke-linecap="round" stroke-linejoin="round"/>
<path d="M19 16.6C20.3255 16.6 21.4 15.5256 21.4 14.2C21.4 12.8745 20.3255 11.8 19 11.8C17.6745 11.8 16.6 12.8745 16.6 14.2C16.6 15.5256 17.6745 16.6 19 16.6Z" stroke="black" stroke-width="1.5" stroke-miterlimit="1.5" stroke-linecap="round" stroke-linejoin="round"/>
<path d="M15.4 14.2V1.72C15.4 1.32236 15.0777 1 14.68 1H1.72C1.32236 1 1 1.32236 1 1.72V13.48C1 13.8777 1.32236 14.2 1.72 14.2H4.18" stroke="black" stroke-width="1.5" stroke-linecap="round"/>
<path d="M15.4 14.2001H9.46008" stroke="black" stroke-width="1.5" stroke-linecap="round"/>
<path d="M15.4 4.59998H22.1321C22.4167 4.59998 22.6745 4.76754 22.7901 5.02756L24.938 9.8603C24.9789 9.95246 25 10.0521 25 10.1527V13.48C25 13.8777 24.6777 14.2 24.28 14.2H22" stroke="black" stroke-width="1.5" stroke-linecap="round"/>
<path d="M15.4 14.2001H16.6" stroke="black" stroke-width="1.5" stroke-linecap="round"/>
</svg>
