<svg width="18" height="18" viewBox="0 0 18 18" fill="none" xmlns="http://www.w3.org/2000/svg">
<g clip-path="url(#clip0_41_675)">
<path d="M17.5779 6.1875H15.4731L14.8881 4.725C14.2869 3.22137 12.8522 2.25 11.2325 2.25H6.76769C5.1484 2.25 3.71332 3.22137 3.1118 4.725L2.5268 6.1875H0.422343C0.147773 6.1875 -0.0536728 6.44555 0.0131241 6.71168L0.224062 7.55543C0.270819 7.74316 0.439569 7.875 0.63328 7.875H1.33887C0.866718 8.28738 0.562616 8.8868 0.562616 9.5625V11.25C0.562616 11.8167 0.779179 12.3282 1.12512 12.7241V14.625C1.12512 15.2462 1.62891 15.75 2.25012 15.75H3.37512C3.99633 15.75 4.50012 15.2462 4.50012 14.625V13.5H13.5001V14.625C13.5001 15.2462 14.0039 15.75 14.6251 15.75H15.7501C16.3713 15.75 16.8751 15.2462 16.8751 14.625V12.7241C17.2211 12.3286 17.4376 11.8171 17.4376 11.25V9.5625C17.4376 8.8868 17.1335 8.28738 16.6617 7.875H17.3673C17.561 7.875 17.7298 7.74316 17.7765 7.55543L17.9875 6.71168C18.0539 6.44555 17.8525 6.1875 17.5779 6.1875ZM5.20078 5.56066C5.45707 4.92012 6.07758 4.5 6.76769 4.5H11.2325C11.9227 4.5 12.5432 4.92012 12.7995 5.56066L13.5001 7.3125H4.50012L5.20078 5.56066ZM3.37512 11.243C2.70012 11.243 2.25012 10.7944 2.25012 10.1215C2.25012 9.44859 2.70012 9 3.37512 9C4.05012 9 5.06262 10.0093 5.06262 10.6822C5.06262 11.3551 4.05012 11.243 3.37512 11.243ZM14.6251 11.243C13.9501 11.243 12.9376 11.3551 12.9376 10.6822C12.9376 10.0093 13.9501 9 14.6251 9C15.3001 9 15.7501 9.44859 15.7501 10.1215C15.7501 10.7944 15.3001 11.243 14.6251 11.243Z" fill="#9CA3AF"/>
</g>
<defs>
<clipPath id="clip0_41_675">
<rect width="18" height="18" fill="white"/>
</clipPath>
</defs>
</svg>
