<svg width="19" height="19" viewBox="0 0 19 19" fill="none" xmlns="http://www.w3.org/2000/svg">
<path d="M5.70242 6.79065H13.2263" stroke="black" stroke-width="1.4" stroke-linecap="round" stroke-linejoin="round"/>
<path d="M4.76193 10.6511H5.70242" stroke="black" stroke-width="1.4" stroke-linecap="round" stroke-linejoin="round"/>
<path d="M13.2263 10.6511H14.1668" stroke="black" stroke-width="1.4" stroke-linecap="round" stroke-linejoin="round"/>
<path d="M1 14.5115V8.15194C1 7.89059 1.05175 7.63185 1.15209 7.39163L3.33287 2.16987C3.62927 1.46015 4.30932 1 5.06175 1H13.8669C14.6194 1 15.2994 1.46015 15.5958 2.16987L17.7766 7.39163C17.877 7.63185 17.9287 7.89059 17.9287 8.15194V14.5115M1 14.5115V16.8278C1 17.1476 1.25264 17.4069 1.56429 17.4069H4.19764C4.50929 17.4069 4.76193 17.1476 4.76193 16.8278V14.5115M1 14.5115H4.76193M17.9287 14.5115V16.8278C17.9287 17.1476 17.6761 17.4069 17.3644 17.4069H14.7311C14.4194 17.4069 14.1668 17.1476 14.1668 16.8278V14.5115M17.9287 14.5115H14.1668M4.76193 14.5115H14.1668" stroke="black" stroke-width="1.4"/>
</svg>
